M48
;GenerationSoftware,Autodesk,EAGLE,9.4.2*%
;CreationDate,2019-10-09T07:29:09Z*%
FMAT,2
ICI,OFF
METRIC,TZ,000.000
T7C0.813
T6C0.965
T5C1.016
T4C1.194
T3C2.997
T2C3.200
T1C3.302
%
G90
M71
T1
X-5750Y10750
X-5750Y-10750
X46765Y-27000
X0Y54000
X-46765Y-27000
T2
X35652Y36830
T3
X38830Y33068
X42973Y36805
T4
X-17740Y-50800
X21630Y49530
X26630Y49530
X21630Y-27940
X26630Y-27940
X15240Y36790
X15240Y31790
X50800Y-8930
X50800Y-13930
X-37066Y45326
X-32971Y48194
X17740Y-50800
X12740Y-50800
X2500Y-50800
X-2500Y-50800
X-12740Y-50800
T5
X-37973Y-16510
X-38227Y-19050
X-37973Y-21590
X-37973Y-1270
X-38227Y-3810
X-37973Y-6350
X-38227Y-8890
X-38100Y-36957
X-35560Y-36703
X-33020Y-36957
X-30480Y-36703
X-38227Y33020
X-37973Y30480
X-38227Y27940
X-37973Y25400
X-38227Y22860
X-37973Y17780
X-38227Y15240
X-37973Y12700
X-38227Y10160
X-37973Y7620
X-13970Y-36703
X-16510Y-36957
X-19050Y-36703
X-21590Y-36957
X-24130Y-36703
X-6223Y30480
X-6477Y33020
X-6223Y35560
X-10160Y0
X2540Y11430
X-47498Y-14351
X-50038Y-14605
X-52578Y-14351
X-55118Y-14605
X-43180Y11430
X-26670Y-29210
X-22860Y-46990
X-22860Y-40640
X44450Y-1270
X-6350Y-25400
X1397Y33020
X1143Y35560
X1397Y38100
X1143Y40640
X-45720Y33020
X-48260Y33020
X-45720Y30480
X-48260Y30480
X-45720Y27940
X-48260Y27940
X-33020Y-44450
X-33020Y-46990
X-30480Y-44450
X6477Y3810
X-30480Y-46990
X-27940Y-44450
X-27940Y-46990
X-38100Y-25400
X-6350Y-38227
X-3810Y-37973
X-1270Y-38227
X1270Y-37973
X3810Y-38227
X6350Y-37973
X8890Y-38227
X11430Y-37973
X13970Y-38227
X16510Y-37973
X6477Y-11430
X6223Y-8890
X6477Y-6350
X6223Y-3810
X6477Y-1270
X6223Y1270
X-43180Y-21590
X6223Y6350
X6477Y8890
X6223Y11430
X-38227Y-13970
T6
X-13970Y30480
X-13970Y27940
X-13970Y25400
X-13970Y22860
X-13970Y20320
X-13970Y17780
X-13970Y15240
X-13970Y12700
X-13970Y10160
X-13970Y7620
X-13970Y5080
X-13970Y2540
X-29210Y2540
X-29210Y5080
X-29210Y7620
X-29210Y10160
X-29210Y12700
X-29210Y15240
X-29210Y17780
X-29210Y22860
X-29210Y25400
X-29210Y27940
X-13970Y33020
X-29210Y30480
X-29210Y33020
X-13970Y35560
X-29210Y35560
X-13970Y0
X-29210Y0
X-13970Y-2540
X-13970Y-5080
X-13970Y-7620
X-13970Y-10160
X-13970Y-12700
X-13970Y-15240
X-13970Y-17780
X-13970Y-20320
X-13970Y-22860
X-29210Y-22860
X-29210Y-20320
X-29210Y-17780
X-29210Y-15240
X-29210Y-12700
X-29210Y-10160
X-29210Y-7620
X-29210Y-5080
X-29210Y-2540
X-22860Y30480
X-22860Y27940
X-22860Y25400
X-22860Y22860
X-29210Y20320
T7
X8890Y46990
X-8890Y46990
X12700Y24130
X15240Y24130
X12700Y16510
X52070Y20320
X41910Y24130
X52070Y24130
X52070Y26670
X41910Y26670
X48260Y-1270
X48260Y8890
X24130Y26670
X34290Y26670
X-6350Y20320
X3810Y16510
X-6350Y16510
X15240Y8890
X8890Y49530
X57150Y5080
X59690Y2540
X54610Y8890
X54610Y19050
X58420Y8890
X58420Y19050
X12700Y8890
X15240Y16510
X-8890Y49530
X15240Y55880
X15240Y45720
X-15240Y55880
X-15240Y45720
X8890Y27940
X-1270Y27940
X3810Y20320
X44450Y12700
X44450Y15240
X52070Y15240
X52070Y12700
X44450Y17780
X44450Y20320
X52070Y17780
X57150Y0
M30